<?xml version="1.0" encoding="UTF-8" standalone="no"?><svg xmlns="http://www.w3.org/2000/svg" xmlns:xlink="http://www.w3.org/1999/xlink" contentScriptType="application/ecmascript" contentStyleType="text/css" height="417px" preserveAspectRatio="none" style="width:489px;height:417px;" version="1.1" viewBox="0 0 489 417" width="489px" zoomAndPan="magnify"><defs><filter height="300%" id="f17b170evufvl" width="300%" x="-1" y="-1"><feGaussianBlur result="blurOut" stdDeviation="2.0"/><feColorMatrix in="blurOut" result="blurOut2" type="matrix" values="0 0 0 0 0 0 0 0 0 0 0 0 0 0 0 0 0 0 .4 0"/><feOffset dx="4.0" dy="4.0" in="blurOut2" result="blurOut3"/><feBlend in="SourceGraphic" in2="blurOut3" mode="normal"/></filter></defs><g><rect fill="#FEFECE" filter="url(#f17b170evufvl)" height="36.2969" rx="12.5" ry="12.5" style="stroke: #A80036; stroke-width: 1.5;" width="183" x="10" y="195.2266"/><text fill="#000000" font-family="sans-serif" font-size="14" lengthAdjust="spacingAndGlyphs" textLength="163" x="20" y="218.2217">confluence-to-degreed</text><path d="M251.6667,14.4635 C250.3845,14.4635 249.3333,15.5147 249.3333,16.7969 L250.5,16.7969 C250.5,16.1424 251.0122,15.6302 251.6667,15.6302 C252.3212,15.6302 252.8333,16.1424 252.8333,16.7969 L252.8333,19.1302 L248.1667,19.1302 L248.1667,23.7969 L255.1667,23.7969 L255.1667,19.1302 L254,19.1302 L254,16.7969 C254,15.5147 252.9488,14.4635 251.6667,14.4635 " fill="#000000" style="stroke: ; stroke-width: 0.0; stroke-dasharray: ;"/><text fill="#000000" font-family="sans-serif" font-size="14" lengthAdjust="spacingAndGlyphs" textLength="73" x="257.3333" y="23.9951">athena_db</text><path d="M193,213.375 L203,213.375 C218,213.375 218,19.1484 233,19.1484 L243,19.1484 " fill="none" style="stroke: #A80036; stroke-width: 1.0;"/><path d="M251.6667,32.7604 C250.3845,32.7604 249.3333,33.8116 249.3333,35.0938 L250.5,35.0938 C250.5,34.4393 251.0122,33.9271 251.6667,33.9271 C252.3212,33.9271 252.8333,34.4393 252.8333,35.0938 L252.8333,37.4271 L248.1667,37.4271 L248.1667,42.0938 L255.1667,42.0938 L255.1667,37.4271 L254,37.4271 L254,35.0938 C254,33.8116 252.9488,32.7604 251.6667,32.7604 " fill="#000000" style="stroke: ; stroke-width: 0.0; stroke-dasharray: ;"/><text fill="#000000" font-family="sans-serif" font-size="14" lengthAdjust="spacingAndGlyphs" textLength="50" x="257.3333" y="42.292">dry_run</text><path d="M193,213.375 L203,213.375 C218,213.375 218,37.4453 233,37.4453 L243,37.4453 " fill="none" style="stroke: #A80036; stroke-width: 1.0;"/><rect fill="#FEFECE" filter="url(#f17b170evufvl)" height="36.2969" rx="12.5" ry="12.5" style="stroke: #A80036; stroke-width: 1.5;" width="80" x="243" y="56.5938"/><text fill="#000000" font-family="sans-serif" font-size="14" lengthAdjust="spacingAndGlyphs" textLength="60" x="253" y="79.5889">sendgrid</text><path d="M381.6667,60.9089 C380.3845,60.9089 379.3333,61.96 379.3333,63.2422 L379.3333,64.4089 L378.1667,64.4089 L378.1667,69.0755 L385.1667,69.0755 L385.1667,64.4089 L384,64.4089 L384,63.2422 C384,61.96 382.9488,60.9089 381.6667,60.9089 M381.6667,62.0755 C382.3212,62.0755 382.8333,62.5877 382.8333,63.2422 L382.8333,64.4089 L380.5,64.4089 L380.5,63.2422 C380.5,62.5877 381.0122,62.0755 381.6667,62.0755 " fill="#000000" style="stroke: ; stroke-width: 0.0; stroke-dasharray: ;"/><text fill="#000000" font-family="sans-serif" font-size="14" lengthAdjust="spacingAndGlyphs" textLength="52" x="387.3333" y="70.4404">api_key</text><path d="M323,74.7422 L333,74.7422 C348,74.7422 348,65.5938 363,65.5938 L373,65.5938 " fill="none" style="stroke: #A80036; stroke-width: 1.0;"/><path d="M381.6667,79.2057 C380.3845,79.2057 379.3333,80.2569 379.3333,81.5391 L380.5,81.5391 C380.5,80.8846 381.0122,80.3724 381.6667,80.3724 C382.3212,80.3724 382.8333,80.8846 382.8333,81.5391 L382.8333,83.8724 L378.1667,83.8724 L378.1667,88.5391 L385.1667,88.5391 L385.1667,83.8724 L384,83.8724 L384,81.5391 C384,80.2569 382.9488,79.2057 381.6667,79.2057 " fill="#000000" style="stroke: ; stroke-width: 0.0; stroke-dasharray: ;"/><text fill="#000000" font-family="sans-serif" font-size="14" lengthAdjust="spacingAndGlyphs" textLength="33" x="387.3333" y="88.7373">from</text><path d="M323,74.7422 L333,74.7422 C348,74.7422 348,83.8906 363,83.8906 L373,83.8906 " fill="none" style="stroke: #A80036; stroke-width: 1.0;"/><path d="M193,213.375 L203,213.375 C218,213.375 218,74.7422 233,74.7422 L243,74.7422 " fill="none" style="stroke: #A80036; stroke-width: 1.0;"/><rect fill="#FEFECE" filter="url(#f17b170evufvl)" height="36.2969" rx="12.5" ry="12.5" style="stroke: #A80036; stroke-width: 1.5;" width="59" x="243" y="112.8906"/><text fill="#000000" font-family="sans-serif" font-size="14" lengthAdjust="spacingAndGlyphs" textLength="35" x="253" y="135.8857">slack</text><path d="M360.6667,117.2057 C359.3845,117.2057 358.3333,118.2569 358.3333,119.5391 L358.3333,120.7057 L357.1667,120.7057 L357.1667,125.3724 L364.1667,125.3724 L364.1667,120.7057 L363,120.7057 L363,119.5391 C363,118.2569 361.9488,117.2057 360.6667,117.2057 M360.6667,118.3724 C361.3212,118.3724 361.8333,118.8846 361.8333,119.5391 L361.8333,120.7057 L359.5,120.7057 L359.5,119.5391 C359.5,118.8846 360.0122,118.3724 360.6667,118.3724 " fill="#000000" style="stroke: ; stroke-width: 0.0; stroke-dasharray: ;"/><text fill="#000000" font-family="sans-serif" font-size="14" lengthAdjust="spacingAndGlyphs" textLength="83" x="366.3333" y="126.7373">slack_token</text><path d="M302,131.0391 L312,131.0391 C327,131.0391 327,121.8906 342,121.8906 L352,121.8906 " fill="none" style="stroke: #A80036; stroke-width: 1.0;"/><path d="M360.6667,135.5026 C359.3845,135.5026 358.3333,136.5538 358.3333,137.8359 L359.5,137.8359 C359.5,137.1814 360.0122,136.6693 360.6667,136.6693 C361.3212,136.6693 361.8333,137.1814 361.8333,137.8359 L361.8333,140.1693 L357.1667,140.1693 L357.1667,144.8359 L364.1667,144.8359 L364.1667,140.1693 L363,140.1693 L363,137.8359 C363,136.5538 361.9488,135.5026 360.6667,135.5026 " fill="#000000" style="stroke: ; stroke-width: 0.0; stroke-dasharray: ;"/><text fill="#000000" font-family="sans-serif" font-size="14" lengthAdjust="spacingAndGlyphs" textLength="94" x="366.3333" y="145.0342">slack_channel</text><path d="M302,131.0391 L312,131.0391 C327,131.0391 327,140.1875 342,140.1875 L352,140.1875 " fill="none" style="stroke: #A80036; stroke-width: 1.0;"/><path d="M193,213.375 L203,213.375 C218,213.375 218,131.0391 233,131.0391 L243,131.0391 " fill="none" style="stroke: #A80036; stroke-width: 1.0;"/><rect fill="#FEFECE" filter="url(#f17b170evufvl)" height="36.2969" rx="12.5" ry="12.5" style="stroke: #A80036; stroke-width: 1.5;" width="45" x="243" y="195.9297"/><text fill="#000000" font-family="sans-serif" font-size="14" lengthAdjust="spacingAndGlyphs" textLength="25" x="253" y="218.9248">wiki</text><path d="M346.6667,163.651 C345.3845,163.651 344.3333,164.7022 344.3333,165.9844 L345.5,165.9844 C345.5,165.3299 346.0122,164.8177 346.6667,164.8177 C347.3212,164.8177 347.8333,165.3299 347.8333,165.9844 L347.8333,168.3177 L343.1667,168.3177 L343.1667,172.9844 L350.1667,172.9844 L350.1667,168.3177 L349,168.3177 L349,165.9844 C349,164.7022 347.9488,163.651 346.6667,163.651 " fill="#000000" style="stroke: ; stroke-width: 0.0; stroke-dasharray: ;"/><text fill="#000000" font-family="sans-serif" font-size="14" lengthAdjust="spacingAndGlyphs" textLength="16" x="352.3333" y="173.1826">url</text><path d="M288,214.0781 L298,214.0781 C313,214.0781 313,168.3359 328,168.3359 L338,168.3359 " fill="none" style="stroke: #A80036; stroke-width: 1.0;"/><path d="M346.6667,181.9479 C345.3845,181.9479 344.3333,182.9991 344.3333,184.2813 L344.3333,185.4479 L343.1667,185.4479 L343.1667,190.1146 L350.1667,190.1146 L350.1667,185.4479 L349,185.4479 L349,184.2813 C349,182.9991 347.9488,181.9479 346.6667,181.9479 M346.6667,183.1146 C347.3212,183.1146 347.8333,183.6268 347.8333,184.2813 L347.8333,185.4479 L345.5,185.4479 L345.5,184.2813 C345.5,183.6268 346.0122,183.1146 346.6667,183.1146 " fill="#000000" style="stroke: ; stroke-width: 0.0; stroke-dasharray: ;"/><text fill="#000000" font-family="sans-serif" font-size="14" lengthAdjust="spacingAndGlyphs" textLength="53" x="352.3333" y="191.4795">passwd</text><path d="M288,214.0781 L298,214.0781 C313,214.0781 313,186.6328 328,186.6328 L338,186.6328 " fill="none" style="stroke: #A80036; stroke-width: 1.0;"/><path d="M346.6667,200.2448 C345.3845,200.2448 344.3333,201.296 344.3333,202.5781 L345.5,202.5781 C345.5,201.9236 346.0122,201.4115 346.6667,201.4115 C347.3212,201.4115 347.8333,201.9236 347.8333,202.5781 L347.8333,204.9115 L343.1667,204.9115 L343.1667,209.5781 L350.1667,209.5781 L350.1667,204.9115 L349,204.9115 L349,202.5781 C349,201.296 347.9488,200.2448 346.6667,200.2448 " fill="#000000" style="stroke: ; stroke-width: 0.0; stroke-dasharray: ;"/><text fill="#000000" font-family="sans-serif" font-size="14" lengthAdjust="spacingAndGlyphs" textLength="68" x="352.3333" y="209.7764">username</text><path d="M288,214.0781 L298,214.0781 C313,214.0781 313,204.9297 328,204.9297 L338,204.9297 " fill="none" style="stroke: #A80036; stroke-width: 1.0;"/><path d="M346.6667,218.5417 C345.3845,218.5417 344.3333,219.5928 344.3333,220.875 L345.5,220.875 C345.5,220.2205 346.0122,219.7083 346.6667,219.7083 C347.3212,219.7083 347.8333,220.2205 347.8333,220.875 L347.8333,223.2083 L343.1667,223.2083 L343.1667,227.875 L350.1667,227.875 L350.1667,223.2083 L349,223.2083 L349,220.875 C349,219.5928 347.9488,218.5417 346.6667,218.5417 " fill="#000000" style="stroke: ; stroke-width: 0.0; stroke-dasharray: ;"/><text fill="#000000" font-family="sans-serif" font-size="14" lengthAdjust="spacingAndGlyphs" textLength="27" x="352.3333" y="228.0732">uiurl</text><path d="M288,214.0781 L298,214.0781 C313,214.0781 313,223.2266 328,223.2266 L338,223.2266 " fill="none" style="stroke: #A80036; stroke-width: 1.0;"/><path d="M346.6667,236.8385 C345.3845,236.8385 344.3333,237.8897 344.3333,239.1719 L345.5,239.1719 C345.5,238.5174 346.0122,238.0052 346.6667,238.0052 C347.3212,238.0052 347.8333,238.5174 347.8333,239.1719 L347.8333,241.5052 L343.1667,241.5052 L343.1667,246.1719 L350.1667,246.1719 L350.1667,241.5052 L349,241.5052 L349,239.1719 C349,237.8897 347.9488,236.8385 346.6667,236.8385 " fill="#000000" style="stroke: ; stroke-width: 0.0; stroke-dasharray: ;"/><text fill="#000000" font-family="sans-serif" font-size="14" lengthAdjust="spacingAndGlyphs" textLength="68" x="352.3333" y="246.3701">item_limit</text><path d="M288,214.0781 L298,214.0781 C313,214.0781 313,241.5234 328,241.5234 L338,241.5234 " fill="none" style="stroke: #A80036; stroke-width: 1.0;"/><path d="M342,258.6354 L342,260.9688 L344.3333,260.9688 L344.3333,258.6354 L342,258.6354 M345.5,258.6354 L345.5,260.9688 L347.8333,260.9688 L347.8333,258.6354 L345.5,258.6354 M349,258.6354 L349,260.9688 L351.3333,260.9688 L351.3333,258.6354 L349,258.6354 " fill="#000000" style="stroke: ; stroke-width: 0.0; stroke-dasharray: ;"/><text fill="#000000" font-family="sans-serif" font-size="14" lengthAdjust="spacingAndGlyphs" textLength="50" x="352.3333" y="264.667">spaces</text><path d="M288,214.0781 L298,214.0781 C313,214.0781 313,259.8203 328,259.8203 L338,259.8203 " fill="none" style="stroke: #A80036; stroke-width: 1.0;"/><path d="M193,213.375 L203,213.375 C218,213.375 218,214.0781 233,214.0781 L243,214.0781 " fill="none" style="stroke: #A80036; stroke-width: 1.0;"/><rect fill="#FEFECE" filter="url(#f17b170evufvl)" height="36.2969" rx="12.5" ry="12.5" style="stroke: #A80036; stroke-width: 1.5;" width="79" x="243" y="296.5625"/><text fill="#000000" font-family="sans-serif" font-size="14" lengthAdjust="spacingAndGlyphs" textLength="59" x="253" y="319.5576">degreed</text><path d="M380.6667,273.4323 C379.3845,273.4323 378.3333,274.4835 378.3333,275.7656 L379.5,275.7656 C379.5,275.1111 380.0122,274.599 380.6667,274.599 C381.3212,274.599 381.8333,275.1111 381.8333,275.7656 L381.8333,278.099 L377.1667,278.099 L377.1667,282.7656 L384.1667,282.7656 L384.1667,278.099 L383,278.099 L383,275.7656 C383,274.4835 381.9488,273.4323 380.6667,273.4323 " fill="#000000" style="stroke: ; stroke-width: 0.0; stroke-dasharray: ;"/><text fill="#000000" font-family="sans-serif" font-size="14" lengthAdjust="spacingAndGlyphs" textLength="57" x="386.3333" y="282.9639">client_id</text><path d="M322,314.7109 L332,314.7109 C347,314.7109 347,278.1172 362,278.1172 L372,278.1172 " fill="none" style="stroke: #A80036; stroke-width: 1.0;"/><path d="M380.6667,291.7292 C379.3845,291.7292 378.3333,292.7803 378.3333,294.0625 L378.3333,295.2292 L377.1667,295.2292 L377.1667,299.8958 L384.1667,299.8958 L384.1667,295.2292 L383,295.2292 L383,294.0625 C383,292.7803 381.9488,291.7292 380.6667,291.7292 M380.6667,292.8958 C381.3212,292.8958 381.8333,293.408 381.8333,294.0625 L381.8333,295.2292 L379.5,295.2292 L379.5,294.0625 C379.5,293.408 380.0122,292.8958 380.6667,292.8958 " fill="#000000" style="stroke: ; stroke-width: 0.0; stroke-dasharray: ;"/><text fill="#000000" font-family="sans-serif" font-size="14" lengthAdjust="spacingAndGlyphs" textLength="91" x="386.3333" y="301.2607">client_secret</text><path d="M322,314.7109 L332,314.7109 C347,314.7109 347,296.4141 362,296.4141 L372,296.4141 " fill="none" style="stroke: #A80036; stroke-width: 1.0;"/><path d="M380.6667,310.026 C379.3845,310.026 378.3333,311.0772 378.3333,312.3594 L379.5,312.3594 C379.5,311.7049 380.0122,311.1927 380.6667,311.1927 C381.3212,311.1927 381.8333,311.7049 381.8333,312.3594 L381.8333,314.6927 L377.1667,314.6927 L377.1667,319.3594 L384.1667,319.3594 L384.1667,314.6927 L383,314.6927 L383,312.3594 C383,311.0772 381.9488,310.026 380.6667,310.026 " fill="#000000" style="stroke: ; stroke-width: 0.0; stroke-dasharray: ;"/><text fill="#000000" font-family="sans-serif" font-size="14" lengthAdjust="spacingAndGlyphs" textLength="56" x="386.3333" y="319.5576">oauthurl</text><path d="M322,314.7109 L332,314.7109 C347,314.7109 347,314.7109 362,314.7109 L372,314.7109 " fill="none" style="stroke: #A80036; stroke-width: 1.0;"/><path d="M380.6667,328.3229 C379.3845,328.3229 378.3333,329.3741 378.3333,330.6563 L379.5,330.6563 C379.5,330.0018 380.0122,329.4896 380.6667,329.4896 C381.3212,329.4896 381.8333,330.0018 381.8333,330.6563 L381.8333,332.9896 L377.1667,332.9896 L377.1667,337.6563 L384.1667,337.6563 L384.1667,332.9896 L383,332.9896 L383,330.6563 C383,329.3741 381.9488,328.3229 380.6667,328.3229 " fill="#000000" style="stroke: ; stroke-width: 0.0; stroke-dasharray: ;"/><text fill="#000000" font-family="sans-serif" font-size="14" lengthAdjust="spacingAndGlyphs" textLength="16" x="386.3333" y="337.8545">url</text><path d="M322,314.7109 L332,314.7109 C347,314.7109 347,333.0078 362,333.0078 L372,333.0078 " fill="none" style="stroke: #A80036; stroke-width: 1.0;"/><path d="M380.6667,346.6198 C379.3845,346.6198 378.3333,347.671 378.3333,348.9531 L379.5,348.9531 C379.5,348.2986 380.0122,347.7865 380.6667,347.7865 C381.3212,347.7865 381.8333,348.2986 381.8333,348.9531 L381.8333,351.2865 L377.1667,351.2865 L377.1667,355.9531 L384.1667,355.9531 L384.1667,351.2865 L383,351.2865 L383,348.9531 C383,347.671 381.9488,346.6198 380.6667,346.6198 " fill="#000000" style="stroke: ; stroke-width: 0.0; stroke-dasharray: ;"/><text fill="#000000" font-family="sans-serif" font-size="14" lengthAdjust="spacingAndGlyphs" textLength="79" x="386.3333" y="356.1514">article_limit</text><path d="M322,314.7109 L332,314.7109 C347,314.7109 347,351.3047 362,351.3047 L372,351.3047 " fill="none" style="stroke: #A80036; stroke-width: 1.0;"/><path d="M193,213.375 L203,213.375 C218,213.375 218,314.7109 233,314.7109 L243,314.7109 " fill="none" style="stroke: #A80036; stroke-width: 1.0;"/><rect fill="#FEFECE" filter="url(#f17b170evufvl)" height="36.2969" rx="12.5" ry="12.5" style="stroke: #A80036; stroke-width: 1.5;" width="118" x="243" y="370.4531"/><text fill="#000000" font-family="sans-serif" font-size="14" lengthAdjust="spacingAndGlyphs" textLength="98" x="253" y="393.4482">dynamo_table</text><path d="M419.6667,374.7682 C418.3845,374.7682 417.3333,375.8194 417.3333,377.1016 L418.5,377.1016 C418.5,376.4471 419.0122,375.9349 419.6667,375.9349 C420.3212,375.9349 420.8333,376.4471 420.8333,377.1016 L420.8333,379.4349 L416.1667,379.4349 L416.1667,384.1016 L423.1667,384.1016 L423.1667,379.4349 L422,379.4349 L422,377.1016 C422,375.8194 420.9488,374.7682 419.6667,374.7682 " fill="#000000" style="stroke: ; stroke-width: 0.0; stroke-dasharray: ;"/><text fill="#000000" font-family="sans-serif" font-size="14" lengthAdjust="spacingAndGlyphs" textLength="21" x="425.3333" y="384.2998">arn</text><path d="M361,388.6016 L371,388.6016 C386,388.6016 386,379.4531 401,379.4531 L411,379.4531 " fill="none" style="stroke: #A80036; stroke-width: 1.0;"/><path d="M419.6667,393.0651 C418.3845,393.0651 417.3333,394.1163 417.3333,395.3984 L418.5,395.3984 C418.5,394.7439 419.0122,394.2318 419.6667,394.2318 C420.3212,394.2318 420.8333,394.7439 420.8333,395.3984 L420.8333,397.7318 L416.1667,397.7318 L416.1667,402.3984 L423.1667,402.3984 L423.1667,397.7318 L422,397.7318 L422,395.3984 C422,394.1163 420.9488,393.0651 419.6667,393.0651 " fill="#000000" style="stroke: ; stroke-width: 0.0; stroke-dasharray: ;"/><text fill="#000000" font-family="sans-serif" font-size="14" lengthAdjust="spacingAndGlyphs" textLength="38" x="425.3333" y="402.5967">name</text><path d="M361,388.6016 L371,388.6016 C386,388.6016 386,397.75 401,397.75 L411,397.75 " fill="none" style="stroke: #A80036; stroke-width: 1.0;"/><path d="M193,213.375 L203,213.375 C218,213.375 218,388.6016 233,388.6016 L243,388.6016 " fill="none" style="stroke: #A80036; stroke-width: 1.0;"/><!--MD5=[8ea417f837846c6965f8ba2d3e321a34]
@startmindmap
* confluence-to-degreed
**_ <&lock-unlocked>athena_db
**_ <&lock-unlocked>dry_run
** sendgrid
***_ <&lock-locked>api_key
***_ <&lock-unlocked>from
** slack 
***_ <&lock-locked>slack_token
***_ <&lock-unlocked>slack_channel
** wiki
***_ <&lock-unlocked>url
***_ <&lock-locked>passwd
***_ <&lock-unlocked>username
***_ <&lock-unlocked>uiurl
***_ <&lock-unlocked>item_limit
***_ <&ellipses>spaces
** degreed
***_ <&lock-unlocked>client_id
***_ <&lock-locked>client_secret
***_ <&lock-unlocked>oauthurl
***_ <&lock-unlocked>url
***_ <&lock-unlocked>article_limit
** dynamo_table
***_ <&lock-unlocked>arn
***_ <&lock-unlocked>name

@endmindmap

PlantUML version 1.2020.00(Sat Jan 11 12:30:53 UTC 2020)
(GPL source distribution)
Java Runtime: OpenJDK Runtime Environment
JVM: OpenJDK 64-Bit Server VM
Java Version: 1.7.0_231-mockbuild_2019_08_02_17_36-b00
Operating System: Linux
Default Encoding: UTF-8
Language: en
Country: US
--></g></svg>