<?xml version="1.0" encoding="UTF-8" standalone="no"?><svg xmlns="http://www.w3.org/2000/svg" xmlns:xlink="http://www.w3.org/1999/xlink" contentScriptType="application/ecmascript" contentStyleType="text/css" height="294px" preserveAspectRatio="none" style="width:451px;height:294px;" version="1.1" viewBox="0 0 451 294" width="451px" zoomAndPan="magnify"><defs><filter height="300%" id="f1c8tz33q1voe4" width="300%" x="-1" y="-1"><feGaussianBlur result="blurOut" stdDeviation="2.0"/><feColorMatrix in="blurOut" result="blurOut2" type="matrix" values="0 0 0 0 0 0 0 0 0 0 0 0 0 0 0 0 0 0 .4 0"/><feOffset dx="4.0" dy="4.0" in="blurOut2" result="blurOut3"/><feBlend in="SourceGraphic" in2="blurOut3" mode="normal"/></filter></defs><g><rect fill="#FEFECE" filter="url(#f1c8tz33q1voe4)" height="33.9688" rx="12.5" ry="12.5" style="stroke: #A80036; stroke-width: 1.5;" width="163" x="10" y="134.8125"/><text fill="#000000" font-family="sans-serif" font-size="12" lengthAdjust="spacingAndGlyphs" textLength="143" x="20" y="155.9512">confluence-to-degreed</text><rect fill="#FEFECE" filter="url(#f1c8tz33q1voe4)" height="33.9688" rx="12.5" ry="12.5" style="stroke: #A80036; stroke-width: 1.5;" width="52" x="223" y="20"/><text fill="#000000" font-family="sans-serif" font-size="12" lengthAdjust="spacingAndGlyphs" textLength="32" x="233" y="41.1387">slack</text><path d="M333,24.9844 C331.901,24.9844 331,25.8854 331,26.9844 L331,27.9844 L330,27.9844 L330,31.9844 L336,31.9844 L336,27.9844 L335,27.9844 L335,26.9844 C335,25.8854 334.099,24.9844 333,24.9844 M333,25.9844 C333.561,25.9844 334,26.4234 334,26.9844 L334,27.9844 L332,27.9844 L332,26.9844 C332,26.4234 332.439,25.9844 333,25.9844 " fill="#000000" style="stroke: ; stroke-width: 0.0; stroke-dasharray: ;"/><text fill="#000000" font-family="sans-serif" font-size="12" lengthAdjust="spacingAndGlyphs" textLength="74" x="338" y="33.1543">slack_token</text><path d="M275,36.9844 L285,36.9844 C300,36.9844 300,29 315,29 L325,29 " fill="none" style="stroke: #A80036; stroke-width: 1.0;"/><path d="M333,40.9531 C331.901,40.9531 331,41.8541 331,42.9531 L332,42.9531 C332,42.3921 332.439,41.9531 333,41.9531 C333.561,41.9531 334,42.3921 334,42.9531 L334,44.9531 L330,44.9531 L330,48.9531 L336,48.9531 L336,44.9531 L335,44.9531 L335,42.9531 C335,41.8541 334.099,40.9531 333,40.9531 " fill="#000000" style="stroke: ; stroke-width: 0.0; stroke-dasharray: ;"/><text fill="#000000" font-family="sans-serif" font-size="12" lengthAdjust="spacingAndGlyphs" textLength="88" x="338" y="49.123">slack_channel</text><path d="M275,36.9844 L285,36.9844 C300,36.9844 300,44.9688 315,44.9688 L325,44.9688 " fill="none" style="stroke: #A80036; stroke-width: 1.0;"/><path d="M173,151.7969 L183,151.7969 C198,151.7969 198,36.9844 213,36.9844 L223,36.9844 " fill="none" style="stroke: #A80036; stroke-width: 1.0;"/><rect fill="#FEFECE" filter="url(#f1c8tz33q1voe4)" height="33.9688" rx="12.5" ry="12.5" style="stroke: #A80036; stroke-width: 1.5;" width="42" x="223" y="94.8906"/><text fill="#000000" font-family="sans-serif" font-size="12" lengthAdjust="spacingAndGlyphs" textLength="22" x="233" y="116.0293">wiki</text><path d="M323,67.9375 C321.901,67.9375 321,68.8385 321,69.9375 L322,69.9375 C322,69.3765 322.439,68.9375 323,68.9375 C323.561,68.9375 324,69.3765 324,69.9375 L324,71.9375 L320,71.9375 L320,75.9375 L326,75.9375 L326,71.9375 L325,71.9375 L325,69.9375 C325,68.8385 324.099,67.9375 323,67.9375 " fill="#000000" style="stroke: ; stroke-width: 0.0; stroke-dasharray: ;"/><text fill="#000000" font-family="sans-serif" font-size="12" lengthAdjust="spacingAndGlyphs" textLength="16" x="328" y="76.1074">url</text><path d="M265,111.875 L275,111.875 C290,111.875 290,71.9531 305,71.9531 L315,71.9531 " fill="none" style="stroke: #A80036; stroke-width: 1.0;"/><path d="M323,83.9063 C321.901,83.9063 321,84.8073 321,85.9063 L321,86.9063 L320,86.9063 L320,90.9063 L326,90.9063 L326,86.9063 L325,86.9063 L325,85.9063 C325,84.8073 324.099,83.9063 323,83.9063 M323,84.9063 C323.561,84.9063 324,85.3453 324,85.9063 L324,86.9063 L322,86.9063 L322,85.9063 C322,85.3453 322.439,84.9063 323,84.9063 " fill="#000000" style="stroke: ; stroke-width: 0.0; stroke-dasharray: ;"/><text fill="#000000" font-family="sans-serif" font-size="12" lengthAdjust="spacingAndGlyphs" textLength="47" x="328" y="92.0762">passwd</text><path d="M265,111.875 L275,111.875 C290,111.875 290,87.9219 305,87.9219 L315,87.9219 " fill="none" style="stroke: #A80036; stroke-width: 1.0;"/><path d="M323,99.875 C321.901,99.875 321,100.776 321,101.875 L322,101.875 C322,101.314 322.439,100.875 323,100.875 C323.561,100.875 324,101.314 324,101.875 L324,103.875 L320,103.875 L320,107.875 L326,107.875 L326,103.875 L325,103.875 L325,101.875 C325,100.776 324.099,99.875 323,99.875 " fill="#000000" style="stroke: ; stroke-width: 0.0; stroke-dasharray: ;"/><text fill="#000000" font-family="sans-serif" font-size="12" lengthAdjust="spacingAndGlyphs" textLength="63" x="328" y="108.0449">username</text><path d="M265,111.875 L275,111.875 C290,111.875 290,103.8906 305,103.8906 L315,103.8906 " fill="none" style="stroke: #A80036; stroke-width: 1.0;"/><path d="M323,115.8438 C321.901,115.8438 321,116.7448 321,117.8438 L322,117.8438 C322,117.2828 322.439,116.8438 323,116.8438 C323.561,116.8438 324,117.2828 324,117.8438 L324,119.8438 L320,119.8438 L320,123.8438 L326,123.8438 L326,119.8438 L325,119.8438 L325,117.8438 C325,116.7448 324.099,115.8438 323,115.8438 " fill="#000000" style="stroke: ; stroke-width: 0.0; stroke-dasharray: ;"/><text fill="#000000" font-family="sans-serif" font-size="12" lengthAdjust="spacingAndGlyphs" textLength="27" x="328" y="124.0137">uiurl</text><path d="M265,111.875 L275,111.875 C290,111.875 290,119.8594 305,119.8594 L315,119.8594 " fill="none" style="stroke: #A80036; stroke-width: 1.0;"/><path d="M323,131.8125 C321.901,131.8125 321,132.7135 321,133.8125 L322,133.8125 C322,133.2515 322.439,132.8125 323,132.8125 C323.561,132.8125 324,133.2515 324,133.8125 L324,135.8125 L320,135.8125 L320,139.8125 L326,139.8125 L326,135.8125 L325,135.8125 L325,133.8125 C325,132.7135 324.099,131.8125 323,131.8125 " fill="#000000" style="stroke: ; stroke-width: 0.0; stroke-dasharray: ;"/><text fill="#000000" font-family="sans-serif" font-size="12" lengthAdjust="spacingAndGlyphs" textLength="58" x="328" y="139.9824">item_limit</text><path d="M265,111.875 L275,111.875 C290,111.875 290,135.8281 305,135.8281 L315,135.8281 " fill="none" style="stroke: #A80036; stroke-width: 1.0;"/><path d="M319,150.7813 L319,152.7813 L321,152.7813 L321,150.7813 L319,150.7813 M322,150.7813 L322,152.7813 L324,152.7813 L324,150.7813 L322,150.7813 M325,150.7813 L325,152.7813 L327,152.7813 L327,150.7813 L325,150.7813 " fill="#000000" style="stroke: ; stroke-width: 0.0; stroke-dasharray: ;"/><text fill="#000000" font-family="sans-serif" font-size="12" lengthAdjust="spacingAndGlyphs" textLength="45" x="328" y="155.9512">spaces</text><path d="M265,111.875 L275,111.875 C290,111.875 290,151.7969 305,151.7969 L315,151.7969 " fill="none" style="stroke: #A80036; stroke-width: 1.0;"/><path d="M173,151.7969 L183,151.7969 C198,151.7969 198,111.875 213,111.875 L223,111.875 " fill="none" style="stroke: #A80036; stroke-width: 1.0;"/><rect fill="#FEFECE" filter="url(#f1c8tz33q1voe4)" height="33.9688" rx="12.5" ry="12.5" style="stroke: #A80036; stroke-width: 1.5;" width="73" x="223" y="182.7188"/><text fill="#000000" font-family="sans-serif" font-size="12" lengthAdjust="spacingAndGlyphs" textLength="53" x="233" y="203.8574">degreed</text><path d="M354,163.75 C352.901,163.75 352,164.651 352,165.75 L353,165.75 C353,165.189 353.439,164.75 354,164.75 C354.561,164.75 355,165.189 355,165.75 L355,167.75 L351,167.75 L351,171.75 L357,171.75 L357,167.75 L356,167.75 L356,165.75 C356,164.651 355.099,163.75 354,163.75 " fill="#000000" style="stroke: ; stroke-width: 0.0; stroke-dasharray: ;"/><text fill="#000000" font-family="sans-serif" font-size="12" lengthAdjust="spacingAndGlyphs" textLength="51" x="359" y="171.9199">client_id</text><path d="M296,199.7031 L306,199.7031 C321,199.7031 321,167.7656 336,167.7656 L346,167.7656 " fill="none" style="stroke: #A80036; stroke-width: 1.0;"/><path d="M354,179.7188 C352.901,179.7188 352,180.6198 352,181.7188 L352,182.7188 L351,182.7188 L351,186.7188 L357,186.7188 L357,182.7188 L356,182.7188 L356,181.7188 C356,180.6198 355.099,179.7188 354,179.7188 M354,180.7188 C354.561,180.7188 355,181.1578 355,181.7188 L355,182.7188 L353,182.7188 L353,181.7188 C353,181.1578 353.439,180.7188 354,180.7188 " fill="#000000" style="stroke: ; stroke-width: 0.0; stroke-dasharray: ;"/><text fill="#000000" font-family="sans-serif" font-size="12" lengthAdjust="spacingAndGlyphs" textLength="80" x="359" y="187.8887">client_secret</text><path d="M296,199.7031 L306,199.7031 C321,199.7031 321,183.7344 336,183.7344 L346,183.7344 " fill="none" style="stroke: #A80036; stroke-width: 1.0;"/><path d="M354,195.6875 C352.901,195.6875 352,196.5885 352,197.6875 L353,197.6875 C353,197.1265 353.439,196.6875 354,196.6875 C354.561,196.6875 355,197.1265 355,197.6875 L355,199.6875 L351,199.6875 L351,203.6875 L357,203.6875 L357,199.6875 L356,199.6875 L356,197.6875 C356,196.5885 355.099,195.6875 354,195.6875 " fill="#000000" style="stroke: ; stroke-width: 0.0; stroke-dasharray: ;"/><text fill="#000000" font-family="sans-serif" font-size="12" lengthAdjust="spacingAndGlyphs" textLength="53" x="359" y="203.8574">oauthurl</text><path d="M296,199.7031 L306,199.7031 C321,199.7031 321,199.7031 336,199.7031 L346,199.7031 " fill="none" style="stroke: #A80036; stroke-width: 1.0;"/><path d="M354,211.6563 C352.901,211.6563 352,212.5573 352,213.6563 L353,213.6563 C353,213.0953 353.439,212.6563 354,212.6563 C354.561,212.6563 355,213.0953 355,213.6563 L355,215.6563 L351,215.6563 L351,219.6563 L357,219.6563 L357,215.6563 L356,215.6563 L356,213.6563 C356,212.5573 355.099,211.6563 354,211.6563 " fill="#000000" style="stroke: ; stroke-width: 0.0; stroke-dasharray: ;"/><text fill="#000000" font-family="sans-serif" font-size="12" lengthAdjust="spacingAndGlyphs" textLength="16" x="359" y="219.8262">url</text><path d="M296,199.7031 L306,199.7031 C321,199.7031 321,215.6719 336,215.6719 L346,215.6719 " fill="none" style="stroke: #A80036; stroke-width: 1.0;"/><path d="M354,227.625 C352.901,227.625 352,228.526 352,229.625 L353,229.625 C353,229.064 353.439,228.625 354,228.625 C354.561,228.625 355,229.064 355,229.625 L355,231.625 L351,231.625 L351,235.625 L357,235.625 L357,231.625 L356,231.625 L356,229.625 C356,228.526 355.099,227.625 354,227.625 " fill="#000000" style="stroke: ; stroke-width: 0.0; stroke-dasharray: ;"/><text fill="#000000" font-family="sans-serif" font-size="12" lengthAdjust="spacingAndGlyphs" textLength="70" x="359" y="235.7949">article_limit</text><path d="M296,199.7031 L306,199.7031 C321,199.7031 321,231.6406 336,231.6406 L346,231.6406 " fill="none" style="stroke: #A80036; stroke-width: 1.0;"/><path d="M173,151.7969 L183,151.7969 C198,151.7969 198,199.7031 213,199.7031 L223,199.7031 " fill="none" style="stroke: #A80036; stroke-width: 1.0;"/><rect fill="#FEFECE" filter="url(#f1c8tz33q1voe4)" height="33.9688" rx="12.5" ry="12.5" style="stroke: #A80036; stroke-width: 1.5;" width="107" x="223" y="249.625"/><text fill="#000000" font-family="sans-serif" font-size="12" lengthAdjust="spacingAndGlyphs" textLength="87" x="233" y="270.7637">dynamo_table</text><path d="M388,254.6094 C386.901,254.6094 386,255.5104 386,256.6094 L387,256.6094 C387,256.0484 387.439,255.6094 388,255.6094 C388.561,255.6094 389,256.0484 389,256.6094 L389,258.6094 L385,258.6094 L385,262.6094 L391,262.6094 L391,258.6094 L390,258.6094 L390,256.6094 C390,255.5104 389.099,254.6094 388,254.6094 " fill="#000000" style="stroke: ; stroke-width: 0.0; stroke-dasharray: ;"/><text fill="#000000" font-family="sans-serif" font-size="12" lengthAdjust="spacingAndGlyphs" textLength="21" x="393" y="262.7793">arn</text><path d="M330,266.6094 L340,266.6094 C355,266.6094 355,258.625 370,258.625 L380,258.625 " fill="none" style="stroke: #A80036; stroke-width: 1.0;"/><path d="M388,270.5781 C386.901,270.5781 386,271.4791 386,272.5781 L387,272.5781 C387,272.0171 387.439,271.5781 388,271.5781 C388.561,271.5781 389,272.0171 389,272.5781 L389,274.5781 L385,274.5781 L385,278.5781 L391,278.5781 L391,274.5781 L390,274.5781 L390,272.5781 C390,271.4791 389.099,270.5781 388,270.5781 " fill="#000000" style="stroke: ; stroke-width: 0.0; stroke-dasharray: ;"/><text fill="#000000" font-family="sans-serif" font-size="12" lengthAdjust="spacingAndGlyphs" textLength="35" x="393" y="278.748">name</text><path d="M330,266.6094 L340,266.6094 C355,266.6094 355,274.5938 370,274.5938 L380,274.5938 " fill="none" style="stroke: #A80036; stroke-width: 1.0;"/><path d="M173,151.7969 L183,151.7969 C198,151.7969 198,266.6094 213,266.6094 L223,266.6094 " fill="none" style="stroke: #A80036; stroke-width: 1.0;"/><!--
@startmindmap
* confluence-to-degreed
** slack
***_ <&lock-locked>slack_token
***_ <&lock-unlocked>slack_channel
** wiki
***_ <&lock-unlocked>url
***_ <&lock-locked>passwd
***_ <&lock-unlocked>username
***_ <&lock-unlocked>uiurl
***_ <&lock-unlocked>item_limit
***_ <&ellipses>spaces
** degreed
***_ <&lock-unlocked>client_id
***_ <&lock-locked>client_secret
***_ <&lock-unlocked>oauthurl
***_ <&lock-unlocked>url
***_ <&lock-unlocked>article_limit
** dynamo_table
***_ <&lock-unlocked>arn
***_ <&lock-unlocked>name

@endmindmap

PlantUML version 1.2019.06(Fri May 24 17:10:25 UTC 2019)
(GPL source distribution)
Java Runtime: OpenJDK Runtime Environment
JVM: OpenJDK 64-Bit Server VM
Java Version: 1.8.0_212-b04
Operating System: Linux
Default Encoding: UTF-8
Language: en
Country: null
--></g></svg>